<?xml version="1.0" encoding="utf-8"?>
<!-- Generator: Adobe Illustrator 22.0.1, SVG Export Plug-In . SVG Version: 6.00 Build 0)  -->
<svg version="1.1" id="Layer_1" xmlns="http://www.w3.org/2000/svg" xmlns:xlink="http://www.w3.org/1999/xlink" x="0px" y="0px"
	 viewBox="0 0 1700.5 720.2" style="enable-background:new 0 0 1700.5 720.2;" xml:space="preserve">
<style type="text/css">
	.st0{fill:#FFFFFF;}
	.st1{opacity:0.1;fill:#7F4CBF;enable-background:new    ;}
	.st2{fill:#F0EAF7;enable-background:new    ;}
	.st3{fill:#D62121;}
	.st4{fill:#EC453C;}
	.st5{opacity:0.5;fill:#FFFFFF;enable-background:new    ;}
</style>
<circle class="st0" cx="299.6" cy="420.5" r="299.6"/>
<path class="st0" d="M436.8,218.4H167.6V84.3c0-12.2,9.9-22.1,22.1-22.1h225c12.2,0,22.1,9.9,22.1,22.1V218.4z"/>
<circle class="st1" cx="299" cy="420.5" r="226.9"/>
<path class="st2" d="M366.1,155.3H238.3c-12.2,0-22.1-9.9-22.1-22.1V22.1c0-12.2,9.9-22.1,22.1-22.1h127.8
	c12.2,0,22.1,9.9,22.1,22.1v111.1C388.2,145.4,378.3,155.3,366.1,155.3z"/>
<path class="st3" d="M307.3,420.5c0,0-239.5-114.9-233.4,22.1C78.7,551.5,275.5,530,275.5,530L307.3,420.5z"/>
<path class="st4" d="M291.3,401.9C418.8,295.4,523,434.8,523,434.8l1.1,1.4C516,553.7,418.3,646.5,298.7,646.5
	c-117.4,0-213.8-89.5-224.9-203.9C78.4,446.2,167.7,505.1,291.3,401.9z"/>
<rect x="204.8" y="62.2" class="st5" width="195.8" height="109.7"/>
<circle class="st4" cx="289.2" cy="266.3" r="44.3"/>
<circle class="st4" cx="384.1" cy="303.7" r="27.9"/>
<g>
	<path class="st4" d="M767.9,239.8c-0.7-6.8-6.1-13.3-16.4-13.3c-11.9,0-18,8.8-18,24.9v12.2c0,13,3.3,25.6,18.9,25.6
		c11.2,0,16.5-7.3,16.5-14v-1.4h-14.4v-23.6h47.8v21.8c0,22.8-13.9,45.8-50.9,45.8c-39.1,0-54-25.6-54-54v-12.8
		c0-30.4,18.7-53,54.4-53c34.7,0,50.6,21.6,50.6,41.9H767.9z"/>
	<path class="st4" d="M851.5,270.6c0,12.8,6.6,17.8,15.6,17.8c8.9,0,15.6-5.3,15.6-17.8v-70.9h35.7v75.9c0,25.6-19.5,42.1-51.3,42.1
		s-51.3-16.5-51.3-42.1v-75.9h35.7V270.6z"/>
	<path class="st4" d="M936.7,315.8v-116h35.7v116H936.7z"/>
	<path class="st4" d="M1042.3,199.8c37.6,0,53.3,22.8,53.3,57.3c0,35.1-16.2,58.7-53.3,58.7h-50.4v-116H1042.3z M1027.6,288.3h8.2
		c11.8,0,23.3-2.6,23.3-30.2c0-15.1-3.1-30.8-23.3-30.8h-8.2V288.3z"/>
	<path class="st4" d="M1192.3,315.8h-82.7v-116h82.7v27.4h-47.4v18.3h44.3v24.8h-44.3v18h47.4V315.8z"/>
	<path class="st4" d="M692.3,524.6l35.2-116h45.2l34.8,116h-38.1l-5-21.9h-31.7l-5.2,21.9H692.3z M748,438.1l-9.3,39.5h20.1l-9-39.5
		H748z"/>
	<path class="st4" d="M817.3,524.6v-116h26.8l39.5,56.1h1.4v-56.1h32.7v116h-26.5l-39.8-57.1H850v57.1H817.3z"/>
	<path class="st4" d="M957.5,524.6v-87.4H928v-28.5h94.6v28.5h-29.5v87.4H957.5z"/>
	<path class="st4" d="M1033,524.6v-116h35.7v116H1033z"/>
	<path class="st4" d="M1141.2,408.6c29.3,0,42.7,20.5,42.7,42.7c0,22.6-13.8,42-43.2,42h-16.8v31.4h-35.6v-116H1141.2z
		 M1123.7,467.5h7.8c9.9,0,16.4-5.9,16.4-16.3c0-10.7-6.5-16.3-16.4-16.3h-7.8V467.5z"/>
	<path class="st4" d="M1191.7,461.1c0-33,19.4-54.4,54.8-54.4c35.5,0,54.7,21.7,54.7,54.4v11.4c0,32.5-19.2,54-54.7,54
		c-35.4,0-54.8-21.5-54.8-54V461.1z M1228.2,472.6c0,16.7,6.9,25.6,18.3,25.6c11.3,0,18.2-8.8,18.2-25.6v-12.1
		c0-16.7-6.9-25.6-18.2-25.6c-11.4,0-18.3,8.9-18.3,25.6V472.6z"/>
	<path class="st4" d="M1316,524.6v-116h35.7v116H1316z"/>
	<path class="st4" d="M1399.7,489c0.2,5.4,5.9,11.3,17,11.3c10.9,0,14.6-4.3,14.6-9.1c0-5.9-5.8-8-16.2-9.9l-14-2.5
		c-19.1-3.4-33-13-33-34.5c0-24,19.3-37.7,48.2-37.7c32.8,0,47.5,18.6,47.5,36.7h-32.3c-0.2-4.8-4.8-11-15.1-11
		c-9.1,0-12.9,4.2-12.9,9.1c0,5,5.7,7.6,15.1,9l14.9,2.3c16.1,2.4,32.7,10.6,32.7,34.6c0,22.6-16.2,39.1-50.2,39.1
		c-38.1,0-49.6-19.6-49.7-37.5H1399.7z"/>
	<path class="st4" d="M1475.9,461.1c0-33,19.4-54.4,54.8-54.4c35.5,0,54.7,21.7,54.7,54.4v11.4c0,32.5-19.2,54-54.7,54
		c-35.4,0-54.8-21.5-54.8-54V461.1z M1512.4,472.6c0,16.7,6.9,25.6,18.3,25.6c11.3,0,18.2-8.8,18.2-25.6v-12.1
		c0-16.7-6.9-25.6-18.2-25.6c-11.4,0-18.3,8.9-18.3,25.6V472.6z"/>
	<path class="st4" d="M1600.2,524.6v-116h26.8l39.5,56.1h1.4v-56.1h32.7v116H1674l-39.8-57.1h-1.4v57.1H1600.2z"/>
</g>
</svg>
