<?xml version="1.0" encoding="utf-8"?>
<!-- Generator: Adobe Illustrator 22.0.1, SVG Export Plug-In . SVG Version: 6.00 Build 0)  -->
<svg version="1.1" id="Layer_1" xmlns="http://www.w3.org/2000/svg" xmlns:xlink="http://www.w3.org/1999/xlink" x="0px" y="0px"
	 viewBox="0 0 742.6 254" style="enable-background:new 0 0 742.6 254;" xml:space="preserve">
<style type="text/css">
	.st0{fill:#2ECC71;}
	.st1{fill:#2E2E2E;}
</style>
<g id="_x32_IqPdS.tif">
	<g>
		<path class="st0" d="M247.5,193.3c-0.7-0.6-1.6-1-2.4-1.4c-6.8-3.2-13.6-6.5-20.4-9.5c-5.5-2.4-11.1-2.4-16.5,0.2
			c-25.1,11.7-50.1,23.4-75.1,35c-5.7,2.7-11.5,2.6-17.2,0c-24.9-11.6-49.8-23.2-74.7-34.8c-5.8-2.7-11.7-2.7-17.5-0.1
			c-6.6,3-13.2,6.1-19.8,9.2c-0.6,0.3-1.2,0.6-1.8,0.9c-2.9,1.8-2.9,4.5,0,6.3c0.8,0.5,1.8,0.9,2.7,1.4
			c36.8,17.2,73.7,34.4,110.5,51.6c2.9,1.4,5.9,2.2,9.1,2c3.1,0.2,6-0.5,8.8-1.8c36.9-17.2,73.8-34.5,110.7-51.7
			c1.3-0.6,2.6-1.2,3.7-2.1C249.5,196.9,249.4,194.8,247.5,193.3z"/>
		<path class="st0" d="M245.1,54.2c-1.4-0.7-2.9-1.4-4.3-2c-9.3-4.3-18.6-8.6-27.9-12.9c-0.5-0.3-1-0.6-1.5-0.9
			c-26-12.1-52-24.3-78-36.4c-5.9-2.7-11.8-2.7-17.7,0C98,10.3,80.3,18.5,62.6,26.8c-8.8,4.1-17.6,8.3-26.4,12.5
			C25,44.5,13.7,49.7,2.6,54.9c-1.4,0.6-2.6,1.6-2.5,3.4c0.1,1.8,1.3,2.7,2.6,3.3c5,2.4,9.9,4.7,14.9,7c8.5,4,17.1,7.9,25.7,11.8
			c0.6,0.4,1.3,0.8,1.9,1.1c7.3,3.4,14.6,6.8,21.9,10.2c16.4,7.6,32.7,15.3,49.2,22.9c5.3,2.4,10.8,2.5,16.1,0.1
			c24.5-11.4,48.9-22.9,73.3-34.3c3.9-1.8,7.9-3.5,11.8-5.4c9.2-4.2,18.3-8.5,27.5-12.8c1.8-0.8,3.9-1.5,3.9-4
			C248.9,55.8,246.8,55.1,245.1,54.2z"/>
		<path class="st0" d="M248.8,126.4c-0.4-1.9-2-2.5-3.5-3.2c-6.7-3.1-13.4-6.3-20.2-9.4c-4.9-2.3-10.2-2.7-15.1-0.7
			c-9.3,3.9-18.3,8.5-27.4,12.8c-0.5,0.2-1,0.3-1.4,0.5c-16,7.5-32,15-48.1,22.4c-5.7,2.6-11.5,2.6-17.2,0
			c-7.3-3.4-14.5-6.8-21.8-10.2c-9.2-4.3-18.5-8.5-27.7-12.8c-9.1-4.3-18.1-8.8-27.4-12.8c-4.7-2-9.7-1.7-14.4,0.4
			c-7.2,3.2-14.2,6.6-21.3,9.9c-1.3,0.6-2.7,1.3-3.1,3c-0.6,3,1.8,3.9,3.8,4.8c37.3,17.4,74.6,34.9,111.9,52.3
			c5.8,2.7,11.7,2.6,17.5-0.1c28.5-13.3,56.9-26.6,85.3-39.9c8.9-4.2,17.9-8.3,26.8-12.5C247.4,130,249.3,129.1,248.8,126.4z"/>
	</g>
</g>
<g>
	<path class="st1" d="M296.7,126.7c0-65.1,49.9-109,114.4-109c56.9,0,84.7,32.2,97.3,61.3l-55,25.6c-5.4-16.4-21.8-30.7-42.3-30.7
		c-29.1,0-49.6,23.4-49.6,52.8c0,29.4,20.5,52.8,49.6,52.8c20.5,0,37-14.2,42.3-30.7l55,25.3c-12.3,28.1-40.4,61.6-97.3,61.6
		C346.6,235.7,296.7,191.5,296.7,126.7z"/>
	<path class="st1" d="M530.9,126.7c0-65.1,49.9-109,114.4-109c56.9,0,84.7,32.2,97.3,61.3l-55,25.6c-5.4-16.4-21.8-30.7-42.3-30.7
		c-29.1,0-49.6,23.4-49.6,52.8c0,29.4,20.5,52.8,49.6,52.8c20.5,0,37-14.2,42.3-30.7l55,25.3c-12.3,28.1-40.4,61.6-97.3,61.6
		C580.8,235.7,530.9,191.5,530.9,126.7z"/>
</g>
</svg>
