<?xml version="1.0" encoding="utf-8"?>
<!-- Generator: Adobe Illustrator 22.0.1, SVG Export Plug-In . SVG Version: 6.00 Build 0)  -->
<svg version="1.1" id="Layer_1" xmlns="http://www.w3.org/2000/svg" xmlns:xlink="http://www.w3.org/1999/xlink" x="0px" y="0px"
	 viewBox="0 0 834.9 266.4" style="enable-background:new 0 0 834.9 266.4;" xml:space="preserve">
<style type="text/css">
	.st0{fill:#FCC014;}
</style>
<g id="Q8yLub.tif">
	<g>
		<path class="st0" d="M676.6,221.5c0,12-0.1,24,0.1,36c0.1,4-1,5.6-5.3,5.6c-13.2,0-13.2,0.1-13.2-13.2c0-20.2,0-40.3-0.2-60.5
			c-0.1-10.3-3-19.5-13.4-23.6c-11.5-4.6-23.3-4.7-33.9,2.5c-7.6,5.2-9.1,13.6-9.2,22.2c-0.1,22.2-0.1,44.3,0.1,66.5
			c0,4.5-1.1,6.2-5.9,6.1c-14.7-0.5-12.9,2-13-13.1c-0.1-19.3,0-38.7,0-58c0-3.8,0-7.6-1-11.4c-2.3-9-8.1-14.3-16.9-16.5
			c-5.2-1.4-10.6-1.5-15.9-0.9c-14.6,1.8-22.3,10.9-22.4,26.8c-0.1,22.3-0.1,44.7,0.1,67c0,4.6-1.3,6.2-5.9,6
			c-14.7-0.5-13,2.3-12.9-13.1c0.1-21.3-1-42.7,0.5-64c1.5-21.6,14.7-34.6,36.3-36.9c8.1-0.9,16.3-0.9,24.4,0.8
			c8.1,1.6,15.2,5,20.6,11.3c1.7,2,3,2.8,5.1,0.4c10-11.3,23.3-13.4,37.3-13c11,0.2,21.6,2.3,30.5,9.3c9,7,13.5,16.5,13.9,27.6
			c0.4,12,0.1,24,0.1,36C676.5,221.5,676.6,221.5,676.6,221.5z"/>
		<path class="st0" d="M124.5,188c0-20.7,0.1-41.3-0.1-62c0-4.7,1.2-6.5,6.2-6.4c14.9,0.4,12.6-1.8,12.7,12.7c0.1,9.5,0,19,0,28.5
			c0,1-0.6,2.6,0.9,3c1.4,0.4,2-0.9,2.7-1.8c11.4-15.1,27.2-15.3,43.5-11.8c15.1,3.2,23.4,13.9,27.1,28.3c4,15.7,4.7,31.6,1.1,47.5
			c-4.8,20.9-19,33.3-40.3,36c-14.6,1.9-29.3,0.8-43.9,0.8c-6.4,0-9.9-4.5-9.9-11.9c-0.1-19.5,0-39,0-58.5
			C124.5,191,124.5,189.5,124.5,188z M143.4,217.1C143.4,217.1,143.4,217.1,143.4,217.1c0,9.2,0,18.3-0.1,27.5
			c0,3.2,1.2,4.5,4.4,4.4c6.7-0.2,13.3,0.2,20-0.2c18.5-0.9,29.6-10.4,33.2-28.6c2.4-12.1,1.8-24.2-1.4-36.1
			c-4.2-15.5-15.7-23-31.6-20.9c-15.1,2-24.1,12.2-24.4,27.9C143.3,199.8,143.4,208.5,143.4,217.1z"/>
		<path class="st0" d="M94.9,210.9c0,15.2,0,30.3,0,45.5c0,6.3-0.3,6.6-6.4,6.6c-0.5,0-1,0-1.5,0c-9.3,0-9.3,0-10.2-9.2
			c-0.1-0.9,0.3-2.1-0.9-2.6c-1.2-0.5-1.7,0.6-2.4,1.3c-13.6,14.4-33.6,18-51.3,9.2c-9-4.5-14.7-12-17.6-21.4
			c-5.4-17.5-6.2-35.4-1.9-53.2c5.1-21,21.4-33.7,44.5-34.9c12.5-0.6,25-0.4,37.5-0.3c6.8,0.1,10.1,4,10.2,12.1
			c0.2,14,0.1,28,0.1,42C94.9,207.6,94.9,209.3,94.9,210.9z M76.2,198.4c0-10.3,0-18.8,0-27.3c0-3-0.4-5.3-4.3-5.2
			c-7,0.2-14-0.2-21,0.3c-16.1,1.3-26.6,10-30.1,25.3c-3.1,13.7-2.8,27.5,1.2,41c4.1,13.8,14.3,20.4,28.8,19.3
			c14-1.1,22.5-9.5,24.5-23.8C76.9,217.5,75.8,207,76.2,198.4z"/>
		<path class="st0" d="M444,211.5c-9.3,0-18.7,0-28,0c-5.9,0-6.9,1.1-6.4,7.1c2,26,19,34,40.7,31.9c8-0.8,15.2-3.7,21.7-8.3
			c3.2-2.2,5-1.9,7.1,1.6c5.5,9.1,5.7,9-3.7,14.3c-17.7,9.9-36.3,10.5-54.9,3.3c-17.1-6.6-25.6-20.6-28.8-38
			c-2.6-14.1-1.9-28.2,2.2-42c6.7-22.2,24.6-34.4,48.1-32.9c4.6,0.3,9.3,0.6,13.8,1.7c18,4.6,29,18.3,30.3,38.1
			c0.3,3.8,0.3,7.7,0.1,11.5c-0.4,6.9-4,11-10.9,11.2c-10.5,0.4-21,0.1-31.5,0.1C444,211.3,444,211.4,444,211.5z M438.4,198
			c7.6,0,15.3,0,22.9,0c2.2,0,4.3,0,5.1-2.8c2.2-8-2.2-22.1-9.2-26.5c-10.8-6.9-22.6-6.7-33.8-1.3c-10.6,5.1-13.1,15.1-13.3,26
			c-0.1,3.4,1.5,4.7,4.8,4.7C422.7,197.9,430.5,198,438.4,198z"/>
		<path class="st0" d="M306.9,203.7c0-11.2,0-20,0-28.9c0-7,0-7-7.2-7c-3.8,0-7.7,0-11.5,0c-2.9,0-4.1-1.4-4.3-4.2
			c-1.1-11.2-0.7-11.8,10.7-11.8c12.4,0,12.4,0,12.4-12.5c0-4.8,0.1-9.7,0-14.5c-0.1-3.5,1-5.2,4.9-5.1c16.8,0.4,13.5-2.4,13.8,13.4
			c0.1,4.8,0.2,9.7,0,14.5c-0.2,3.3,1,4.3,4.3,4.2c14.7-0.1,29.3-0.1,44-0.1c8.6,0,8.6,0,8.6,8.8c0,0.7-0.1,1.3,0,2
			c0.3,4-1.7,5.2-5.4,5.2c-15-0.1-30,0.2-45-0.1c-5.1-0.1-6.6,1.6-6.5,6.6c0.6,17.3-0.6,34.6,0.6,51.9c1.6,23.1,17.6,26.5,33.9,22.1
			c2.7-0.7,5.3-2,7.7-3.4c5.8-3.4,5.7-3.5,10,2c6.5,8.2,6.6,8.4-2.6,13.1c-15.5,8-31.7,8.3-47.9,2.5c-9.9-3.5-15.2-11.5-17.8-21.4
			C306,228,307.2,214.6,306.9,203.7z"/>
		<path class="st0" d="M789.1,148.5c14.5,0.2,25.8,3,36.3,9c3.5,2,3.8,3.9,1.7,7.1c-5.7,8.7-5.6,8.8-15.2,4.5
			c-9-3.9-18.3-6-28.2-4.2c-9.2,1.7-14.6,8.1-14.4,16.9c0.2,6.9,3.8,11.3,11.5,13.9c7.8,2.6,16.1,2.4,24.1,4.1
			c2.1,0.5,4.3,0.8,6.3,1.4c15.8,4.3,22.3,12.1,23.6,28.1c1.2,14.1-5.8,26.5-19.4,31.8c-23.3,9-45.7,6.1-66.6-7.5
			c-2.8-1.8-3.2-3.7-1-6.5c6.6-8.6,6.5-8.6,15.9-3.5c10.7,5.7,22.2,7.9,34.3,6.4c3.3-0.4,6.5-1.5,9.4-3.2c5.9-3.5,8.3-8.9,7.9-15.6
			c-0.4-6.6-4.2-10.6-10.2-12.8c-7.9-2.9-16.4-2.7-24.5-4.2c-3.6-0.7-7.1-1.6-10.5-3c-12.5-5.1-19.5-14-19.9-27.7
			c-0.4-14.2,5.9-24.2,18.6-30.4C775.9,149.5,783.6,148.6,789.1,148.5z"/>
		<path class="st0" d="M246.3,207.5c0-16.8,0.1-33.6-0.1-50.4c-0.1-4.2,1.4-5.5,5.5-5.4c15.5,0.4,13.3-2.2,13.3,13.1
			c0.1,30.3,0,60.6,0,90.8c0,7.3,0,7.3-7.1,7.3c-11.7,0-11.7,0-11.7-11.5C246.3,236.8,246.3,222.2,246.3,207.5z"/>
		<path class="st0" d="M705.1,207c0-16.3,0.1-32.6-0.1-48.9c-0.1-4.6,1-6.5,6.1-6.4c12.5,0.3,12.5,0,12.5,12.4c0,30.6,0,61.3,0,91.9
			c0,7,0,7.1-6.8,7c-13.5-0.2-11.6,2-11.7-11.5C705,236.6,705.1,221.8,705.1,207z"/>
		<path class="st0" d="M424.5,41c7.7,11.1,16.1,21.5,26.7,30.1c16,12.9,34.5,20,54.4,24c4.6,0.9,9.2,1.6,13.7,2.4
			c-1.7,4.4-4.2,8.2-7.6,11.4c-1.4-0.3-2.9-0.7-4.3-1c-14.8-2.4-29.2-6.2-42.7-12.8c-19.7-9.5-35-24-47.4-41.7
			C418.2,48.4,421.2,44.6,424.5,41z"/>
		<path class="st0" d="M524.3,85c-37.4-5.1-68.4-21-90-53.1c3.2-2.6,6.4-5.2,10.5-6.3c11.1,15,24.8,27.1,41.6,35.3
			c12.9,6.3,26.5,10,40.6,12.4C526.7,77.4,526.1,81.3,524.3,85z"/>
		<path class="st0" d="M413.5,69.8c20.4,28.1,48.4,43.2,82.2,48.5c1,0.2,1.9,0.6,2.8,0.9c-20.9,10.1-40.8,5.8-59.8-4.9
			c-13.1-7.4-22-18.5-25-33.7C413.2,77.1,413.2,73.5,413.5,69.8z"/>
		<path class="st0" d="M714.2,139.1c-6.9-0.1-11.1-4.5-10.9-11.4c0.2-6.8,4.7-11.1,11.5-10.9c6.2,0.1,10.5,4.8,10.5,11.5
			C725.2,134.9,720.8,139.2,714.2,139.1z"/>
		<path class="st0" d="M255.8,116.8c6.6,0,10.8,4.7,10.6,11.7c-0.1,6.5-4.2,10.5-10.7,10.5c-6.9,0-11.4-4.4-11.3-11.1
			C244.5,121.3,249.1,116.8,255.8,116.8z"/>
		<path class="st0" d="M526.4,54.2c-2.8-12.6-8.5-24.1-14.6-35.3c-3.5-6.5-5.6-13.8-11.4-18.9c-2,0-4,0-6,0c-0.6,0.5-1.2,1-1.9,1.4
			c-11.2,7-23.5,11.8-35.2,17.7c8.7,11.3,19.7,19.7,31.8,26.8c1.8,1.1,3.8,2,5.6,3c0.6-3.4,0.6-3.4,0,0c9.5,5.1,19.5,8.4,30.1,10.1
			c0.6,0.1,1.2,0.1,1.8,0.2C527.3,57.4,526.8,55.9,526.4,54.2z"/>
	</g>
</g>
</svg>
