<?xml version="1.0" encoding="utf-8"?>
<!-- Generator: Adobe Illustrator 21.0.1, SVG Export Plug-In . SVG Version: 6.00 Build 0)  -->
<svg version="1.1" id="Layer_1" xmlns="http://www.w3.org/2000/svg" xmlns:xlink="http://www.w3.org/1999/xlink" x="0px" y="0px"
	 viewBox="0 0 235.3 194.9" style="enable-background:new 0 0 235.3 194.9;" xml:space="preserve">
<style type="text/css">
	.st0{fill:#CCCCCC;}
	.st1{fill:none;stroke:#CCCCCC;stroke-width:0.5;stroke-miterlimit:10;}
</style>
<g>
	<g>
		<path class="st0" d="M139.7,161.9l2,19.4c0.5,4.1,2,5.9,2,6l0.1,0.1l0.1,0.1c2.5,2.2,6.7,4.8,8.1,5.7v0.3
			c-0.3,0.2-1.3,0.5-3.4,0.5l-62.6,0c0,0-0.1,0-0.2,0c-1.4,0-2.4-0.2-2.9-0.4v-0.2l8-5.4c0.5-0.3,2-1.6,2.6-6.4l2.2-19.6
			L139.7,161.9 M140.6,160.9l-45.9,0l-2.3,20.5c-0.6,4.9-2.2,5.7-2.2,5.7l-8.5,5.8v1.3c0.8,0.8,3.1,0.9,3.9,0.9c0.2,0,0.3,0,0.3,0
			s58.7,0,62.6,0c3.9,0,4.4-1.1,4.4-1.1v-1.3c0,0-5.6-3.4-8.4-5.9c0,0-1.4-1.6-1.8-5.5L140.6,160.9L140.6,160.9z"/>
	</g>
</g>
<g>
	<g>
		<path class="st0" d="M230.3,1c2.2,0,4,1.8,4,4v151.9c0,2.2-1.8,4-4,4H5c-2.2,0-4-1.8-4-4V5c0-2.2,1.8-4,4-4H230.3 M230.3,0H5
			C2.2,0,0,2.2,0,5v151.9c0,2.8,2.2,5,5,5h225.3c2.8,0,5-2.2,5-5V5C235.3,2.2,233.1,0,230.3,0L230.3,0z"/>
	</g>
</g>
<g>
	<g>
		<path class="st0" d="M234.8,140.8v16.1c0,2.5-2,4.5-4.5,4.5H5c-2.5,0-4.5-2-4.5-4.5v-16.1H234.8 M235.3,140.3H0v16.6
			c0,2.8,2.2,5,5,5h225.3c2.8,0,5-2.2,5-5V140.3L235.3,140.3z"/>
	</g>
</g>
<rect x="9" y="9.7" class="st1" width="217" height="121.5"/>
<circle class="st1" cx="118.8" cy="6" r="1.2"/>
</svg>
